<?xml version="1.0" encoding="UTF-8"?>
<svg version="1.1" xmlns="http://www.w3.org/2000/svg" width="512" height="512">
<path d="M0 0 C17.01339949 10.16901742 33.66165997 20.83327571 49.6875 32.5 C50.46222656 33.06219238 51.23695313 33.62438477 52.03515625 34.20361328 C71.37942295 48.26546687 90.56955634 62.81791929 108.09765625 79.12109375 C110.19406036 81.04675001 112.3155136 82.92362106 114.46484375 84.7890625 C118.80226824 88.57154059 123.00391048 92.48633212 127.1875 96.4375 C127.89519531 97.10201172 128.60289062 97.76652344 129.33203125 98.45117188 C136.0762068 104.80697169 142.68531162 111.22108882 148.72265625 118.2578125 C150.61924486 120.42211043 152.57142825 122.52615947 154.53857422 124.6262207 C161.03572947 131.58713451 166.9272453 138.92352898 172.6875 146.5 C173.45578125 147.49515625 174.2240625 148.4903125 175.015625 149.515625 C185.89273593 163.93786839 187.80194109 178.90814578 185.38720703 196.71435547 C183.51147514 206.04522559 179.16777259 213.255644 171.4375 218.75 C162.26790693 224.43452813 153.53987699 226.67869333 142.875 226.6875 C142.10607422 226.69974609 141.33714844 226.71199219 140.54492188 226.72460938 C139.39926758 226.72750977 139.39926758 226.72750977 138.23046875 226.73046875 C137.55008545 226.73457764 136.86970215 226.73868652 136.16870117 226.74291992 C133.6875 226.5 133.6875 226.5 130.06103516 225.37475586 C124.84224065 224.02091824 120.34384098 225.12481936 115.16796875 226.2734375 C114.18758133 226.4760318 113.20719391 226.6786261 112.19709778 226.88735962 C109.08603644 227.53355905 105.98067231 228.20342516 102.875 228.875 C99.75059077 229.53433853 96.62520811 230.1888142 93.49934387 230.84121704 C91.55952923 231.24784434 89.62074877 231.65944353 87.68315125 232.07650757 C86.80826553 232.26314972 85.93337982 232.44979187 85.03198242 232.64208984 C84.26335373 232.80800629 83.49472504 232.97392273 82.70280457 233.14486694 C80.6875 233.5 80.6875 233.5 77.6875 233.5 C77.69749275 234.69817101 77.69749275 234.69817101 77.70768738 235.92054749 C77.76793021 243.46773064 77.81354106 251.01479633 77.84293652 258.56215763 C77.85855735 262.44185246 77.87972949 266.32134773 77.91381836 270.20092773 C77.94654056 273.94864792 77.96437994 277.69617678 77.97213173 281.44402885 C77.97765227 282.87010139 77.98843244 284.29616407 78.00469017 285.72215462 C78.12367808 296.5964456 77.57159531 303.43255363 69.6875 311.5 C64.19104241 315.20691326 57.71443334 316.21363376 51.21875 315.0625 C43.66970186 312.84811255 39.6107876 308.22563588 35.6875 301.5 C34.81688387 298.05657348 34.54373111 294.7944481 34.48217773 291.25073242 C34.46223251 290.23005173 34.44228729 289.20937103 34.42173767 288.15776062 C34.39666893 286.52312614 34.39666893 286.52312614 34.37109375 284.85546875 C34.35031265 283.7305452 34.32953156 282.60562164 34.30812073 281.4466095 C34.24284208 277.8603006 34.18384101 274.27391973 34.125 270.6875 C34.08179417 268.25324783 34.03817922 265.81900288 33.99414062 263.38476562 C33.88718286 257.42325047 33.78585432 251.46166305 33.6875 245.5 C30.3875 246.49 27.0875 247.48 23.6875 248.5 C23.55214844 249.4178125 23.41679687 250.335625 23.27734375 251.28125 C21.54349549 261.16522333 18.99502537 266.45617115 11.0625 272.5 C4.34584121 274.49012112 -3.32739802 274.8216528 -9.8125 271.875 C-13.50916509 269.68206308 -15.86804924 267.01389797 -18.3125 263.5 C-18.3125 262.84 -18.3125 262.18 -18.3125 261.5 C-27.33088736 264.89629053 -36.3403124 268.31555016 -45.34417725 271.75012207 C-47.18007247 272.44954868 -49.01699896 273.14626667 -50.85400391 273.84277344 C-96.87561004 291.33460277 -142.3540018 312.43100338 -184.80859375 337.40234375 C-188.37368319 339.4787836 -191.91352262 341.23524331 -195.72265625 342.81640625 C-202.92861137 345.96792416 -202.92861137 345.96792416 -208.3125 351.5 C-210.07541021 358.34233023 -209.64154238 365.20902889 -209.23828125 372.19921875 C-208.99640553 378.30624168 -210.26176904 381.9511002 -214.3125 386.5 C-218.97226768 391.37765351 -223.50053794 393.27322887 -230.1875 393.8125 C-235.95057784 393.59337156 -240.28948024 392.36020824 -244.59375 388.40234375 C-250.3125 382.21038732 -250.3125 382.21038732 -250.3125 378.5 C-253.35501996 380.6237802 -256.3964183 382.7491609 -259.4375 384.875 C-260.34298584 385.50752686 -261.24847168 386.14005371 -262.18139648 386.79174805 C-266.35530745 389.71182428 -270.52265603 392.63870411 -274.65234375 395.62109375 C-275.28833496 396.08016113 -275.92432617 396.53922852 -276.57958984 397.01220703 C-277.75032181 397.86008825 -278.91873799 398.71117907 -280.08447266 399.56591797 C-286.51210531 404.22082269 -292.56018157 404.25632375 -300.3125 403.5 C-306.00754932 401.85121172 -309.52892936 398.76984853 -312.875 393.9375 C-316.00344261 388.22356762 -315.90276109 382.86170287 -315.3125 376.5 C-316.20388672 376.11134766 -316.20388672 376.11134766 -317.11328125 375.71484375 C-319.47188107 374.41195824 -320.77932588 373.11934696 -322.5 371.0625 C-323.00917969 370.46566406 -323.51835937 369.86882812 -324.04296875 369.25390625 C-327.69296372 364.21129782 -326.69125333 357.39839979 -326.3125 351.5 C-325.49560784 346.56890411 -324.28540579 341.76350412 -323 336.9375 C-322.64151287 335.55182284 -322.283284 334.16607885 -321.92529297 332.78027344 C-309.97174583 287.05707871 -293.81789669 242.89091819 -272.81933594 200.54443359 C-271.5553114 197.99057974 -270.30711696 195.43037633 -269.0703125 192.86328125 C-256.603732 167.14564247 -241.21978849 142.51426895 -224.3125 119.5 C-223.53519531 118.43910156 -222.75789063 117.37820312 -221.95703125 116.28515625 C-219.7676505 113.33627351 -217.54995841 110.41255362 -215.3125 107.5 C-214.89677734 106.95811035 -214.48105469 106.4162207 -214.05273438 105.85791016 C-204.1946144 93.04600535 -193.70258109 80.8465168 -182.70117188 69.00634766 C-181.28248171 67.46743796 -179.88193093 65.91358066 -178.484375 64.35546875 C-171.37699 56.47127458 -163.83772934 49.17858121 -155.99023438 42.03369141 C-154.5601054 40.72634708 -153.14554697 39.40200328 -151.734375 38.07421875 C-144.07726512 30.95102299 -135.67227525 24.76473579 -127.3125 18.5 C-127.58964844 17.83613281 -127.86679688 17.17226562 -128.15234375 16.48828125 C-128.51457031 15.60527344 -128.87679687 14.72226563 -129.25 13.8125 C-129.78947266 12.50732422 -129.78947266 12.50732422 -130.33984375 11.17578125 C-134.27750173 0.34326833 -132.85142095 -11.08718135 -128.3125 -21.5 C-101.22933033 -66.28108253 -31.32487498 -18.4371187 0 0 Z " fill="#FEC23B" transform="translate(326.3125,74.5)"/>
<path d="M0 0 C3.38172985 0.64161208 5.73389647 1.95126923 8.6171875 3.8046875 C13.61289672 6.87152325 18.66207771 9.04110091 24.125 11.125 C40.93127957 17.79808159 56.89619246 26.00410597 72.5 35.125 C73.45648438 35.68155273 74.41296875 36.23810547 75.3984375 36.81152344 C76.70167969 37.58931152 76.70167969 37.58931152 78.03125 38.3828125 C78.80017578 38.84059082 79.56910156 39.29836914 80.36132812 39.77001953 C80.90208984 40.17591309 81.44285156 40.58180664 82 41 C82 41.66 82 42.32 82 43 C82.84304688 43.23460937 83.68609375 43.46921875 84.5546875 43.7109375 C88.53907962 45.20169646 91.64951251 47.21346495 95.125 49.625 C96.46471765 50.53794549 97.80456277 51.45070395 99.14453125 52.36328125 C99.80146973 52.81396973 100.4584082 53.2646582 101.13525391 53.72900391 C103.67189108 55.45795561 106.24352059 57.13209366 108.8125 58.8125 C120.5765292 66.66049242 132.14112973 74.93641646 143 84 C143.95777344 84.7734375 144.91554688 85.546875 145.90234375 86.34375 C154.03133161 93.01613422 161.50798484 100.31960085 168.9375 107.75 C169.43381927 108.2454129 169.93013855 108.74082581 170.4414978 109.25125122 C176.17744972 114.9883897 181.74364377 120.81772737 187 127 C187.98462505 128.12982395 188.97027216 129.25875815 189.95703125 130.38671875 C195.76732895 137.08597998 201.33823685 143.90638229 206.6953125 150.97265625 C210.75332451 156.30309576 214.9672236 161.50948849 219.203125 166.69921875 C219.91984375 167.58222656 220.6365625 168.46523438 221.375 169.375 C222.34566406 170.56222656 222.34566406 170.56222656 223.3359375 171.7734375 C224.84471135 173.79221941 225.96481091 175.71003626 227 178 C226.21496094 178.35191406 225.42992187 178.70382812 224.62109375 179.06640625 C213.47821423 184.30287601 207.80802035 189.63558827 203 201 C201.85340103 204.43979692 201.86139493 207.11810904 201.84228516 210.74707031 C201.83720444 211.42876785 201.83212372 212.11046539 201.82688904 212.81282043 C201.81619482 214.29258188 201.80757092 215.7723594 201.80076981 217.25214386 C201.78896077 219.59833656 201.76950147 221.94434685 201.74765015 224.29046631 C201.68611155 230.96099733 201.63206482 237.6315103 201.59863281 244.30224609 C201.57762541 248.38425563 201.54227167 252.46593319 201.49787521 256.54775238 C201.48376056 258.09935332 201.47500306 259.651013 201.47182083 261.20267487 C201.46688267 263.38058416 201.4436513 265.55762116 201.41650391 267.73535156 C201.40437363 269.59042328 201.40437363 269.59042328 201.39199829 271.48297119 C200.63873973 278.24124572 197.70263804 283.18799828 193 288 C187.50354241 291.70691326 181.02693334 292.71363376 174.53125 291.5625 C166.98220186 289.34811255 162.9232876 284.72563588 159 278 C158.12938387 274.55657348 157.85623111 271.2944481 157.79467773 267.75073242 C157.77473251 266.73005173 157.75478729 265.70937103 157.73423767 264.65776062 C157.70916893 263.02312614 157.70916893 263.02312614 157.68359375 261.35546875 C157.66281265 260.2305452 157.64203156 259.10562164 157.62062073 257.9466095 C157.55534208 254.3603006 157.49634101 250.77391973 157.4375 247.1875 C157.39429417 244.75324783 157.35067922 242.31900288 157.30664062 239.88476562 C157.19968286 233.92325047 157.09835432 227.96166305 157 222 C153.7 222.99 150.4 223.98 147 225 C146.79697266 226.37671875 146.79697266 226.37671875 146.58984375 227.78125 C144.85599549 237.66522333 142.30752537 242.95617115 134.375 249 C127.65834121 250.99012112 119.98510198 251.3216528 113.5 248.375 C109.80333491 246.18206308 107.44445076 243.51389797 105 240 C105 239.34 105 238.68 105 238 C95.98161264 241.39629053 86.9721876 244.81555016 77.96832275 248.25012207 C76.13242753 248.94954868 74.29550104 249.64626667 72.45849609 250.34277344 C20.03436562 270.26806549 -30.96992806 295.08083225 -78.95068359 324.10595703 C-83.78542344 327 -83.78542344 327 -86 327 C-87.08828956 313.39638051 -81.13802527 301.13470521 -72.75 290.8125 C-63.91146305 281.3880657 -51.92647263 276.11182259 -40.5625 270.375 C-38.80378036 269.48179183 -37.04515504 268.58839792 -35.28662109 267.69482422 C-30.19861368 265.11478896 -25.10107087 262.55409098 -20 260 C-19.32575989 259.66170166 -18.65151978 259.32340332 -17.95684814 258.97485352 C-3.82283588 251.88878647 10.51642591 245.37371624 25.0625 239.1875 C25.79893738 238.87387512 26.53537476 238.56025024 27.29412842 238.23712158 C29.37237438 237.35482036 31.4530733 236.4786715 33.53515625 235.60546875 C35.33545288 234.84979614 35.33545288 234.84979614 37.17211914 234.07885742 C40 233 40 233 42 233 C42 232.34 42 231.68 42 231 C41.38253906 231.04640625 40.76507813 231.0928125 40.12890625 231.140625 C32.49713553 231.4658755 26.78733767 230.22133333 20.8828125 225.19921875 C17.77556246 221.98589792 16.15723644 219.89624771 15.375 215.4375 C16.08678928 211.52265897 17.25374853 208.56526342 19 205 C19.6909375 205.27714844 20.381875 205.55429687 21.09375 205.83984375 C24.22563998 207.09007402 27.35969726 208.33352638 30.5 209.5625 C31.6034375 209.99691406 32.706875 210.43132812 33.84375 210.87890625 C47.14921961 215.60498271 64.0641334 214.00950038 76.84619141 208.15429688 C86.2180428 203.36022464 93.39343455 197.5048175 97.4375 187.6875 C100.08999525 179.38553434 100.21040513 171.8853726 96.18359375 164.0546875 C95.79300781 163.37664062 95.40242187 162.69859375 95 162 C94.66097656 161.38382813 94.32195312 160.76765625 93.97265625 160.1328125 C88.66466407 151.63246915 79.24586031 147.02461477 70 144 C68.46085937 143.46632812 68.46085937 143.46632812 66.890625 142.921875 C50.47440722 139.03208846 34.6611307 141.8678827 20.25 150.1875 C17.86421324 151.68454169 15.99496817 153.00503183 14 155 C8.54545455 154.54545455 8.54545455 154.54545455 6 152 C6.30725644 149.69557667 6.92846512 148.11922479 8.125 146.125 C9.27872949 143.90799791 9.27872949 143.90799791 8.3125 141.0625 C8.209375 140.051875 8.10625 139.04125 8 138 C10.4375 135.125 10.4375 135.125 13 133 C12.45730469 132.45730469 11.91460937 131.91460937 11.35546875 131.35546875 C5 125 5 125 3.49609375 123.45703125 C1.03978344 121.06485436 -1.62724549 118.91570706 -4.2578125 116.71875 C-6.46597705 114.5402917 -6.96491139 112.81265223 -7.09765625 109.73828125 C-7.08605469 108.93777344 -7.07445312 108.13726562 -7.0625 107.3125 C-7.05347656 106.50425781 -7.04445313 105.69601563 -7.03515625 104.86328125 C-7.02355469 104.24839844 -7.01195312 103.63351563 -7 103 C-2.190589 101.91849702 2.31201143 102.01965207 7.19799805 102.16796875 C26.37581079 102.6730832 42.27741695 98.84506329 56.9375 85.75 C64.35869769 77.7180803 67.42759854 67.6703101 67.26953125 56.96484375 C66.40272492 47.42997407 61.82620565 39.56162403 55 33 C46.88821351 26.38597377 38.21502856 22.36055681 28 20 C27.24686523 19.82130371 26.49373047 19.64260742 25.71777344 19.45849609 C22.64005369 18.93927604 19.79594705 18.9383067 16.67578125 19.0078125 C15.48275391 19.02457031 14.28972656 19.04132813 13.06054688 19.05859375 C10.549984 19.1030748 8.03954601 19.15523019 5.52929688 19.21484375 C3.74555664 19.23611328 3.74555664 19.23611328 1.92578125 19.2578125 C0.83692627 19.2798877 -0.25192871 19.30196289 -1.3737793 19.32470703 C-2.24043213 19.21755371 -3.10708496 19.11040039 -4 19 C-6.68284999 14.97572502 -6.93800193 11.72909307 -6 7 C-4.3129078 4.30751856 -2.32658685 2.15347771 0 0 Z " fill="#FB9F2B" transform="translate(203,98)"/>
<path d="M0 0 C17.01339949 10.16901742 33.66165997 20.83327571 49.6875 32.5 C50.46222656 33.06219238 51.23695313 33.62438477 52.03515625 34.20361328 C71.37942295 48.26546687 90.56955634 62.81791929 108.09765625 79.12109375 C110.19406036 81.04675001 112.3155136 82.92362106 114.46484375 84.7890625 C118.80226824 88.57154059 123.00391048 92.48633212 127.1875 96.4375 C127.89519531 97.10201172 128.60289062 97.76652344 129.33203125 98.45117188 C136.0762068 104.80697169 142.68531162 111.22108882 148.72265625 118.2578125 C150.61924486 120.42211043 152.57142825 122.52615947 154.53857422 124.6262207 C161.03572947 131.58713451 166.9272453 138.92352898 172.6875 146.5 C173.45578125 147.49515625 174.2240625 148.4903125 175.015625 149.515625 C185.89273593 163.93786839 187.80194109 178.90814578 185.38720703 196.71435547 C183.51147514 206.04522559 179.16777259 213.255644 171.4375 218.75 C162.26790693 224.43452813 153.53987699 226.67869333 142.875 226.6875 C142.10607422 226.69974609 141.33714844 226.71199219 140.54492188 226.72460938 C139.39926758 226.72750977 139.39926758 226.72750977 138.23046875 226.73046875 C137.55008545 226.73457764 136.86970215 226.73868652 136.16870117 226.74291992 C133.6875 226.5 133.6875 226.5 130.06103516 225.37475586 C124.84224065 224.02091824 120.34384098 225.12481936 115.16796875 226.2734375 C114.18758133 226.4760318 113.20719391 226.6786261 112.19709778 226.88735962 C109.08603644 227.53355905 105.98067231 228.20342516 102.875 228.875 C99.75059077 229.53433853 96.62520811 230.1888142 93.49934387 230.84121704 C91.55952923 231.24784434 89.62074877 231.65944353 87.68315125 232.07650757 C86.80826553 232.26314972 85.93337982 232.44979187 85.03198242 232.64208984 C84.26335373 232.80800629 83.49472504 232.97392273 82.70280457 233.14486694 C80.6875 233.5 80.6875 233.5 77.6875 233.5 C78.21639758 222.56944996 82.27087594 215.0085875 90.1953125 207.484375 C94.03040121 204.4307307 98.17661298 202.37404283 102.6875 200.5 C102.02105469 199.65179688 101.35460937 198.80359375 100.66796875 197.9296875 C100.2282373 197.36999268 99.78850586 196.81029785 99.33544922 196.23364258 C98.34893885 194.97815889 97.3622815 193.72279068 96.37548828 192.4675293 C93.8550205 189.26092975 91.33655923 186.05281612 88.82421875 182.83984375 C68.14135734 156.40567629 46.30949371 129.21058828 19.6875 108.5 C17.97798709 107.06390298 16.26969659 105.62634982 14.5625 104.1875 C3.5530128 95.17830589 -8.41255262 87.2728823 -20.3125 79.5 C-21.00472656 79.0467334 -21.69695312 78.5934668 -22.41015625 78.12646484 C-24.70885182 76.62275125 -27.01016051 75.12312763 -29.3125 73.625 C-30.04339844 73.14796631 -30.77429688 72.67093262 -31.52734375 72.17944336 C-32.21957031 71.73093018 -32.91179687 71.28241699 -33.625 70.8203125 C-34.54732422 70.22114014 -34.54732422 70.22114014 -35.48828125 69.60986328 C-37.38268381 68.45729984 -39.31663267 67.46433877 -41.3125 66.5 C-41.3125 65.84 -41.3125 65.18 -41.3125 64.5 C-42.03961182 64.22470459 -42.76672363 63.94940918 -43.51586914 63.66577148 C-46.1777121 62.55618614 -48.56855192 61.2970986 -51.05859375 59.84765625 C-51.96681885 59.32397461 -52.87504395 58.80029297 -53.81079102 58.26074219 C-54.78072998 57.70032227 -55.75066895 57.13990234 -56.75 56.5625 C-72.66761229 47.48833871 -88.72985844 39.11382143 -105.90649414 32.66699219 C-116.01775922 28.76034535 -125.60643051 21.99265442 -130.1875 11.8125 C-134.00719779 0.56561207 -133.03917614 -10.65644886 -128.3125 -21.5 C-101.22933033 -66.28108253 -31.32487498 -18.4371187 0 0 Z " fill="#FCA66C" transform="translate(326.3125,74.5)"/>
<path d="M0 0 C8.50710667 6.34839642 15.43928924 14.57945622 17.4140625 25.25390625 C18.62167263 36.81974978 15.56456936 46.18869021 8.4140625 55.25390625 C-0.38479307 66.06070578 -14.00500481 72.1513536 -27.5859375 74.25390625 C-40.09105728 75.42099459 -53.00002798 75.5804153 -64.5859375 70.25390625 C-65.18696289 69.98545898 -65.78798828 69.71701172 -66.40722656 69.44042969 C-78.41597322 63.97199891 -88.38798946 56.81561402 -93.5859375 44.25390625 C-93.9365625 43.68414062 -94.2871875 43.114375 -94.6484375 42.52734375 C-97.37224718 35.92210529 -96.5812481 26.50330262 -94.5234375 19.78515625 C-87.9200513 5.86062447 -76.90762265 -2.81054588 -62.5859375 -8.18359375 C-42.43740042 -15.03286779 -17.55369834 -11.85272381 0 0 Z " fill="#FBB7A1" transform="translate(253.5859375,126.74609375)"/>
<path d="M0 0 C0.79140381 -0.00555908 1.58280762 -0.01111816 2.39819336 -0.0168457 C15.00514307 0.13602124 26.65454716 4.25811401 36.4375 12.3125 C38.70754169 14.82506751 40.65931066 17.43241628 42.4375 20.3125 C43.00017578 21.21162109 43.00017578 21.21162109 43.57421875 22.12890625 C45.71818478 27.55187914 45.45121518 35.09052958 43.71484375 40.609375 C41.62829014 44.42768362 38.66825935 47.44887239 35.4375 50.3125 C34.89609375 50.79589844 34.3546875 51.27929688 33.796875 51.77734375 C22.64996968 60.980566 8.77690861 63.24745818 -5.24755859 62.54785156 C-14.34732579 61.62271176 -22.79706043 57.98374129 -30.5625 53.3125 C-30.624375 53.869375 -30.68625 54.42625 -30.75 55 C-32.50622737 59.99849329 -37.01948916 62.98673182 -41.55859375 65.3984375 C-53.11653562 70.67048116 -64.65040376 70.64564673 -76.5625 66.3125 C-82.24772778 63.43594445 -86.74883202 60.1743083 -89.5625 54.3125 C-90.7211349 50.27753371 -90.85975874 47.28354521 -89.625 43.25 C-84.7440615 36.29836032 -78.58734226 31.81606345 -70.33984375 29.7578125 C-60.95145013 28.25250044 -51.33465485 28.55300506 -42.5625 32.3125 C-42.7171875 30.889375 -42.7171875 30.889375 -42.875 29.4375 C-42.83755209 23.27107709 -39.78243569 17.85730432 -35.80078125 13.29296875 C-30.98186258 8.80638929 -25.60289009 5.85337287 -19.5625 3.3125 C-18.83933594 2.99152344 -18.11617188 2.67054688 -17.37109375 2.33984375 C-11.6480103 0.1999082 -6.0407616 0.03562665 0 0 Z " fill="#FB4839" transform="translate(140.5625,293.6875)"/>
<path d="M0 0 C3.2700056 2.40045355 6.15571014 4.97856682 8.875 8 C9.74125 8.928125 10.6075 9.85625 11.5 10.8125 C16.6511104 17.72583238 17.87932837 24.45153061 16.875 33 C14.78136636 42.99361126 9.22749517 49.944844 1.18359375 56.0390625 C-12.49044275 64.78300421 -29.12452366 67.17745646 -44.95703125 64.3046875 C-58.51927851 60.80759666 -69.35944229 53.81887143 -76.9609375 42.05078125 C-80.55327592 35.72199712 -79.8881206 27.08611984 -79.125 20 C-76.58875935 10.98099177 -70.24453837 4.83684118 -62.5625 -0.125 C-42.93968181 -11.02005727 -19.43579094 -12.25852174 0 0 Z " fill="#FBB7A0" transform="translate(286.125,247)"/>
<path d="M0 0 C6.39749524 4.94988683 6.78628461 12.58143769 7.79296875 20.1171875 C3.57475139 22.88729037 -0.74742946 24.56757595 -5.4609375 26.26953125 C-7.1231459 26.88091574 -8.78525111 27.49258083 -10.44726562 28.10449219 C-11.31569092 28.42236694 -12.18411621 28.7402417 -13.07885742 29.06774902 C-30.71638857 35.53719097 -48.06213079 42.42591723 -65.20703125 50.1171875 C-66.23103027 50.57544922 -67.2550293 51.03371094 -68.31005859 51.50585938 C-75.30469657 54.64826484 -82.26484718 57.86068452 -89.20703125 61.1171875 C-90.20766602 61.58592285 -91.20830078 62.0546582 -92.23925781 62.53759766 C-118.56119994 74.91133914 -144.32019741 88.31981528 -169.34375 103.15234375 C-170.13700684 103.6225293 -170.93026367 104.09271484 -171.74755859 104.57714844 C-173.22094417 105.45427675 -174.69151378 106.33615947 -176.15869141 107.22363281 C-180.99221538 110.1171875 -180.99221538 110.1171875 -183.20703125 110.1171875 C-184.29532081 96.51356801 -178.34505652 84.25189271 -169.95703125 73.9296875 C-161.1184943 64.5052532 -149.13350388 59.22901009 -137.76953125 53.4921875 C-136.01081161 52.59897933 -134.25218629 51.70558542 -132.49365234 50.81201172 C-127.40564493 48.23197646 -122.30810212 45.67127848 -117.20703125 43.1171875 C-116.53279114 42.77888916 -115.85855103 42.44059082 -115.16387939 42.09204102 C-101.02986713 35.00597397 -86.69060534 28.49090374 -72.14453125 22.3046875 C-71.03987518 21.83425018 -71.03987518 21.83425018 -69.91290283 21.35430908 C-67.83465687 20.47200786 -65.75395795 19.595859 -63.671875 18.72265625 C-62.47167725 18.21887451 -61.27147949 17.71509277 -60.03491211 17.19604492 C-57.20703125 16.1171875 -57.20703125 16.1171875 -55.20703125 16.1171875 C-54.87703125 15.1271875 -54.54703125 14.1371875 -54.20703125 13.1171875 C-51.90178071 12.2849104 -49.70181073 11.64665321 -47.33203125 11.0546875 C-37.83482663 8.52084211 -28.75969797 5.0090511 -19.65087891 1.33178711 C-12.3630752 -1.49410679 -7.47577193 -2.99030877 0 0 Z " fill="#FA8E3F" transform="translate(300.20703125,314.8828125)"/>
<path d="M0 0 C1.02931641 -0.01611328 2.05863281 -0.03222656 3.11914062 -0.04882812 C16.28230605 -0.05715397 27.68441705 4.32064519 37.390625 13.30859375 C42.712534 19.24367922 45.06221544 25.68238785 44.6796875 33.63671875 C43.84852352 38.15534831 41.78934831 41.58368833 39.1875 45.3125 C38.61 46.199375 38.0325 47.08625 37.4375 48 C32.90639892 52.656965 27.33709222 56.2026399 21.1875 58.3125 C20.1975 58.3125 19.2075 58.3125 18.1875 58.3125 C18.1875 58.9725 18.1875 59.6325 18.1875 60.3125 C18.80625 60.56 19.425 60.8075 20.0625 61.0625 C22.68193701 62.6033453 23.32230643 63.40230346 24.1875 66.3125 C23.89413502 70.4929509 23.52825925 72.80136112 21.1875 76.3125 C19.3125 76.90234375 19.3125 76.90234375 17.1875 77.25 C15.04496966 77.659866 15.04496966 77.659866 13.1875 78.3125 C12.50481862 79.63770503 11.8367959 80.97062182 11.1875 82.3125 C4.98269056 84.65653912 -0.05919189 82.10231011 -6.01953125 79.83203125 C-8.94869945 78.23839988 -9.76960683 77.414609 -10.8125 74.3125 C-10.0390625 73.8175 -10.0390625 73.8175 -9.25 73.3125 C-6.92277242 70.07461815 -8.19312474 67.15262661 -8.8125 63.3125 C-8.4825 62.9825 -8.1525 62.6525 -7.8125 62.3125 C-8.71613281 62.04695313 -9.61976563 61.78140625 -10.55078125 61.5078125 C-12.32001953 60.97800781 -12.32001953 60.97800781 -14.125 60.4375 C-15.88263672 59.91542969 -15.88263672 59.91542969 -17.67578125 59.3828125 C-23.19916428 57.4981214 -23.19916428 57.4981214 -24.8046875 54.39453125 C-25.09601563 53.64558594 -25.38734375 52.89664063 -25.6875 52.125 C-28.70960003 45.07719209 -31.51391684 41.00298979 -38.125 36.9375 C-42.57158354 33.97531991 -42.57158354 33.97531991 -43.59765625 31.15234375 C-43.87120709 24.21842464 -40.86569235 18.62892214 -36.375 13.5625 C-35.529375 12.82 -34.68375 12.0775 -33.8125 11.3125 C-33.090625 10.6525 -32.36875 9.9925 -31.625 9.3125 C-21.55140316 2.14905336 -12.14355165 -0.03759614 0 0 Z " fill="#FB4839" transform="translate(325.8125,212.6875)"/>
<path d="M0 0 C6.05745933 4.91723169 11.14396023 10.49816109 12.375 18.41015625 C12.78000725 26.5988965 9.94792959 32.8401529 4.9375 39.1875 C-3.43963432 48.19247093 -16.41147816 52.49364724 -28.4453125 53.203125 C-43.3553502 53.39306179 -57.00383946 50.38626629 -68.2421875 40.03515625 C-73.61374315 33.81608848 -76.53529849 26.16330199 -76 18 C-74.32701092 9.78562363 -68.8512239 3.77309576 -62.1953125 -1.01953125 C-43.30662174 -12.67164568 -18.53429808 -12.61243326 0 0 Z " fill="#FB4939" transform="translate(178,196)"/>
<path d="M0 0 C-0.66 3.96 -1.32 7.92 -2 12 C-3.155 11.67 -4.31 11.34 -5.5 11 C-17.26595372 8.41632296 -29.66380451 8.9858553 -40.3125 14.8125 C-44.52195888 18.23880374 -47.98923308 21.4013387 -49.0625 26.875 C-49.3463966 31.67376831 -47.94282119 35.23972848 -45 39 C-37.1840611 46.3047699 -26.33442943 48.68494204 -15.86328125 48.3515625 C-7.40855108 47.31346466 0.65931439 44.78932164 7 39 C8.94552789 35.86653522 8.94552789 35.86653522 10 33 C10.68449219 33.27585937 11.36898437 33.55171875 12.07421875 33.8359375 C15.31107709 35.12376632 18.56021876 36.37664963 21.8125 37.625 C22.97394531 38.07101562 24.13539062 38.51703125 25.33203125 38.9765625 C26.21246094 39.31429687 27.09289062 39.65203125 28 40 C26.98445548 48.04357422 23.09604434 53.57493265 16.875 58.6875 C8.86870404 64.46982486 0.97128931 68.66762369 -9 69 C-9.495 70.98 -9.495 70.98 -10 73 C-11.32 72.67 -12.64 72.34 -14 72 C-14 71.34 -14 70.68 -14 70 C-15.05574219 70.05220703 -15.05574219 70.05220703 -16.1328125 70.10546875 C-32.33437636 70.54963695 -47.14760611 66.38186882 -59.08984375 55.08984375 C-66.09246518 47.42848901 -67.55831982 40.2097926 -67.33203125 30.0859375 C-66.84732234 21.38511333 -62.04812468 15.00360049 -55.84765625 9.17578125 C-39.19692551 -3.54638202 -19.91313672 -5.82823514 0 0 Z " fill="#FBB6A0" transform="translate(100,314)"/>
<path d="M0 0 C4.12834299 3.38868154 9.18065683 7.70093092 9.80078125 13.26171875 C10.00715922 20.35460372 8.89530708 24.54180067 4.0546875 29.74609375 C-5.28495219 38.45585076 -17.16946542 40.62632771 -29.546875 40.44140625 C-40.43304954 39.55608483 -50.59303063 35.71558782 -57.875 27.4375 C-61.50750545 22.97357641 -61.85191762 19.7413161 -61.76953125 14.01171875 C-61.12903852 8.44319957 -58.62196955 4.92157309 -54.34765625 1.40625 C-38.78241868 -9.44950543 -15.95608872 -11.22835873 0 0 Z " fill="#F69B38" transform="translate(240.4375,135.875)"/>
<path d="M0 0 C3.48872528 2.89308926 6.51328953 6.02657905 8.5625 10.125 C8.98629778 16.48196671 8.53459493 20.64886558 4.2265625 25.6875 C-3.69704447 33.41784827 -14.16922512 34.74879764 -24.77563477 34.67016602 C-34.14180866 34.29575741 -42.97723329 31.08221031 -49.4375 24.125 C-52.20269855 19.48660242 -53.03987954 15.6635044 -52.1953125 10.3984375 C-50.47293336 5.23130008 -46.84770462 1.55499817 -42.21875 -1.19140625 C-39.98797231 -2.22657877 -37.76363139 -3.08009899 -35.4375 -3.875 C-33.82875 -4.49375 -33.82875 -4.49375 -32.1875 -5.125 C-20.59091986 -7.44431603 -10.33688146 -5.63829898 0 0 Z " fill="#F5892D" transform="translate(276.4375,255.875)"/>
<path d="M0 0 C2.75456686 2.21839813 2.96743965 5.18109799 3.65234375 8.52734375 C5.19445102 13.00198287 8.46526255 15.7586531 11.83984375 18.96875 C13.60546875 21.29296875 13.60546875 21.29296875 13.50390625 23.92578125 C11.33708023 29.63489677 5.95909702 32.85096287 0.60546875 35.29296875 C-10.4138704 39.70070441 -21.27341326 39.33838905 -32.39453125 35.29296875 C-38.07975903 32.4164132 -42.58086327 29.15477705 -45.39453125 23.29296875 C-46.55316615 19.25800246 -46.69178999 16.26401396 -45.45703125 12.23046875 C-40.57609275 5.27882907 -34.41937351 0.7965322 -26.171875 -1.26171875 C-18.11160758 -2.5540823 -7.64852672 -3.0565407 0 0 Z " fill="#EA732F" transform="translate(96.39453125,324.70703125)"/>
<path d="M0 0 C2.87099923 2.24829392 4.79490764 4.24697771 6.1875 7.6875 C6.60541045 13.8516791 6.60541045 13.8516791 5.1875 16.6875 C3.15149924 16.87176713 1.10636072 16.95656224 -0.9375 17 C-11.32738235 17.58429809 -20.57864744 20.8735098 -29.8125 25.6875 C-37.99539786 20.28369952 -37.99539786 20.28369952 -39.8125 15.6875 C-40.34187142 10.92315719 -40.33137884 8.72525768 -38.1875 4.4375 C-29.01860466 -6.17911566 -11.62305001 -7.71634635 0 0 Z " fill="#A3BD00" transform="translate(139.8125,277.3125)"/>
<path d="M0 0 C3.43328498 2.29290057 5.16770967 3.81284362 7.2109375 7.4765625 C7.7286484 11.47444109 7.22453415 14.82185701 5.10546875 18.28125 C0.79169047 23.13878184 -4.76653379 24.98400796 -11.0859375 25.7578125 C-17.80001573 26.03563643 -23.07624893 24.24578874 -28.6640625 20.6015625 C-31.81175478 17.45387022 -32.60712062 14.90177391 -33.1640625 10.5390625 C-32.67621902 6.55500741 -31.3254192 4.56132064 -28.7890625 1.4765625 C-19.78187485 -5.16031261 -9.56627135 -5.40177468 0 0 Z " fill="#7C6574" transform="translate(49.7890625,393.5234375)"/>
<path d="M0 0 C3.25111738 2.5270694 5.57415603 5.09599137 7.3125 8.875 C7.39214137 13.33491679 6.61880206 15.41992266 4.125 19.125 C-0.94971688 24.0869454 -6.40414044 25.97422088 -13.375 26.1875 C-20.09612652 26.09828151 -25.95804208 24.01983959 -30.75 19.1875 C-33.24444329 14.92280663 -33.65160019 11.7044278 -32.6875 6.875 C-30.15682302 2.56347626 -26.7618195 -0.1237308 -21.984375 -1.6796875 C-15.0771414 -3.01884504 -6.23817222 -3.67922445 0 0 Z " fill="#7A6274" transform="translate(319.6875,183.125)"/>
<path d="M0 0 C2.65228907 3.53638542 3.49552113 6.34184489 3.0625 10.75 C0.72289278 15.61638302 -2.27060162 18.12486966 -6.9375 20.75 C-13.497489 22.88849862 -21.60272566 23.05251364 -28.0078125 20.55078125 C-32.13199772 18.16404432 -35.22197936 16.34231679 -36.9375 11.75 C-37.51017666 6.67772097 -37.59686701 4.7778368 -34.8125 0.4375 C-24.37319637 -9.32097948 -10.70619957 -8.20049329 0 0 Z " fill="#7A6375" transform="translate(194.9375,258.25)"/>
<path d="M0 0 C4.26446194 3.17126269 6.42696604 5.74329132 7.37890625 11.1953125 C7.0902819 15.38036562 5.33966601 17.83988843 2.4453125 20.78125 C-3.08312584 25.43548095 -8.35484521 25.7446859 -15.37109375 25.54296875 C-22.18178694 24.88182433 -26.81451427 22.56899734 -31.30859375 17.2578125 C-33.04842102 13.77815796 -32.89417946 10.05425021 -32.30859375 6.2578125 C-24.92533605 -3.44589763 -10.59313018 -6.32491698 0 0 Z " fill="#796375" transform="translate(89.30859375,282.7421875)"/>
<path d="M0 0 C2.8448332 4.2672498 2.86598588 7.99399388 2 13 C-1.01021094 18.59484033 -5.74383294 21.64226345 -11.7265625 23.55078125 C-19.3389798 25.05495305 -28.64650576 25.37118273 -35.41796875 21.2109375 C-38.98018625 18.48430188 -41.56743505 16.29769485 -43 12 C-43.06740865 10.43881572 -43.08514456 8.8749748 -43.0625 7.3125 C-43.05347656 6.50425781 -43.04445312 5.69601563 -43.03515625 4.86328125 C-43.02355469 4.24839844 -43.01195312 3.63351563 -43 3 C-36.07149734 1.45367328 -28.99166019 1.98421792 -21.94140625 2.12695312 C-14.76086409 2.20334187 -6.81954859 -1.00287479 0 0 Z " fill="#93AB00" transform="translate(239,198)"/>
<path d="M0 0 C1.03640625 0.41572266 1.03640625 0.41572266 2.09375 0.83984375 C5.22563998 2.09007402 8.35969726 3.33352638 11.5 4.5625 C12.6034375 4.99691406 13.706875 5.43132812 14.84375 5.87890625 C19.24251602 7.44133923 23.20163582 8.12773138 27.86328125 8.09765625 C28.74951172 8.09443359 29.63574219 8.09121094 30.54882812 8.08789062 C31.46083984 8.07951172 32.37285156 8.07113281 33.3125 8.0625 C34.24384766 8.05798828 35.17519531 8.05347656 36.13476562 8.04882812 C38.42324373 8.03709234 40.71158808 8.02067363 43 8 C42.32912316 14.52154692 40.91455684 17.75610976 36 22 C29.06668534 26.17522685 20.89020315 26.74783519 13 26 C5.97602282 24.25511959 0.74000418 20.19838698 -3 14 C-3.9620008 8.51659545 -2.37022313 4.83920555 0 0 Z " fill="#8EA300" transform="translate(222,303)"/>
<path d="M0 0 C2.12573423 2.08175352 3.95298219 4.07794859 5.8125 6.375 C6.33295898 7.00116211 6.85341797 7.62732422 7.38964844 8.27246094 C20 23.59003171 20 23.59003171 20 27 C12.8885316 30.96919166 5.29262483 31.01448529 -2.62890625 29.49609375 C-8.18121798 27.85200821 -13.06984411 25.2325102 -16.12890625 20.109375 C-17.66291295 16.39473994 -17.75560296 12.93046101 -17 9 C-13.54462311 2.79223668 -7.30722901 -2.62037659 0 0 Z " fill="#9DB401" transform="translate(406,245)"/>
<path d="M0 0 C3.06582358 3.38854185 4.03121062 5.07928667 3.875 9.6875 C3 13 3 13 1 16 C-0.875 16.58984375 -0.875 16.58984375 -3 16.9375 C-5.14253034 17.347366 -5.14253034 17.347366 -7 18 C-7.68268138 19.32520503 -8.3507041 20.65812182 -9 22 C-15.20480944 24.34403912 -20.24669189 21.78981011 -26.20703125 19.51953125 C-29.13619945 17.92589988 -29.95710683 17.102109 -31 14 C-30.484375 13.67 -29.96875 13.34 -29.4375 13 C-27.66165278 10.52925604 -27.97146029 9.85554407 -28.4375 6.9375 C-28.623125 5.638125 -28.80875 4.33875 -29 3 C-26.03065503 0.03065503 -22.67786725 0.57417925 -18.6875 0.4375 C-0.72433139 -0.27858899 -0.72433139 -0.27858899 0 0 Z " fill="#A16143" transform="translate(346,273)"/>
<path d="M0 0 C0.495 0.680625 0.99 1.36125 1.5 2.0625 C6.79001412 8.27826659 12.95496384 12.93411477 20 17 C18.0142727 21.25138093 15.89427671 23.00024285 11.75 25.1875 C4.83360363 27.23098075 -0.29366258 25.83986975 -6.80078125 23.265625 C-9.35774896 21.7941196 -10.53438684 20.55435437 -12 18 C-12.3984375 15.74609375 -12.3984375 15.74609375 -12.375 13.4375 C-12.38273437 12.67308594 -12.39046875 11.90867187 -12.3984375 11.12109375 C-11.89985979 8.46690066 -11.13916854 7.61298226 -9 6 C-7.824375 5.690625 -6.64875 5.38125 -5.4375 5.0625 C-1.92747334 4.37041801 -1.92747334 4.37041801 -0.5625 1.875 C-0.376875 1.25625 -0.19125 0.6375 0 0 Z " fill="#A16144" transform="translate(36,362)"/>
<path d="M0 0 C3.35301076 0.63941801 5.67463386 1.918941 8.53125 3.76171875 C13.96525546 7.10012115 19.57331913 9.49214853 25.5 11.8125 C27.44807697 12.58944193 29.39600161 13.36676597 31.34375 14.14453125 C32.19130859 14.47815674 33.03886719 14.81178223 33.91210938 15.15551758 C36 16 36 16 38 17 C37.34 18.32 36.68 19.64 36 21 C28.44943051 20.10416972 28.44943051 20.10416972 25.75537109 19.47973633 C22.65954055 18.94072277 19.81694789 18.93783888 16.67578125 19.0078125 C15.48275391 19.02457031 14.28972656 19.04132813 13.06054688 19.05859375 C10.549984 19.1030748 8.03954601 19.15523019 5.52929688 19.21484375 C3.74555664 19.23611328 3.74555664 19.23611328 1.92578125 19.2578125 C0.83692627 19.2798877 -0.25192871 19.30196289 -1.3737793 19.32470703 C-2.24043213 19.21755371 -3.10708496 19.11040039 -4 19 C-6.68284999 14.97572502 -6.93800193 11.72909307 -6 7 C-4.3129078 4.30751856 -2.32658685 2.15347771 0 0 Z " fill="#A2BA04" transform="translate(203,98)"/>
<path d="M0 0 C3.17225351 1.54762334 6.12690545 3.45252641 9.125 5.3125 C9.93582031 5.79912109 10.74664062 6.28574219 11.58203125 6.78710938 C12.75185547 7.50543945 12.75185547 7.50543945 13.9453125 8.23828125 C15.00516357 8.888573 15.00516357 8.888573 16.08642578 9.55200195 C18.18814479 11.14236881 19.52072523 12.83149792 21 15 C20.38511719 15.24234375 19.77023437 15.4846875 19.13671875 15.734375 C14.11710362 17.65829091 14.11710362 17.65829091 10.3125 21.25 C9 23 9 23 6.3125 23.4375 C0.02581051 22.60718252 -5.41660173 19.93128409 -11 17 C-10.125 12.125 -10.125 12.125 -9 11 C-9.03197717 9.5406783 -9.10026484 8.08206293 -9.1875 6.625 C-9.22893357 2.28828671 -9.22893357 2.28828671 -7.3125 -0.125 C-4.38748764 -1.23176143 -2.99812433 -0.80208329 0 0 Z " fill="#A36244" transform="translate(287,141)"/>
<path d="M0 0 C2.86851021 1.6576227 4.90951412 3.26783897 6.5 6.25 C6.5 6.91 6.5 7.57 6.5 8.25 C5.15808594 8.68699219 5.15808594 8.68699219 3.7890625 9.1328125 C-4.55429504 11.96137081 -13.13067647 14.88067647 -19.5 21.25 C-24.95454545 20.79545455 -24.95454545 20.79545455 -27.5 18.25 C-27.19274356 15.94557667 -26.57153488 14.36922479 -25.375 12.375 C-24.15990289 9.42404988 -24.80650381 7.30138325 -25.5 4.25 C-18.07888219 -2.11095813 -9.18191002 -4.31091524 0 0 Z " fill="#A46E4A" transform="translate(236.5,231.75)"/>
<path d="M0 0 C3.31700914 1.2258512 4.09270113 2.07325681 5.875 5.0625 C6.21557617 7.44433594 6.21557617 7.44433594 6.16796875 10.046875 C6.15830078 10.98144531 6.14863281 11.91601562 6.13867188 12.87890625 C6.11353516 13.84699219 6.08839844 14.81507813 6.0625 15.8125 C6.04896484 16.79605469 6.03542969 17.77960938 6.02148438 18.79296875 C5.98618726 21.21670415 5.93688054 23.63932145 5.875 26.0625 C3.9179132 26.73281719 1.95928887 27.39864683 0 28.0625 C-1.09054687 28.43375 -2.18109375 28.805 -3.3046875 29.1875 C-6.125 30.0625 -6.125 30.0625 -8.125 30.0625 C-8.27047545 26.00037788 -8.35913226 21.93892713 -8.4375 17.875 C-8.47939453 16.72451172 -8.52128906 15.57402344 -8.56445312 14.38867188 C-8.70262859 4.85456512 -8.70262859 4.85456512 -5.80078125 1.765625 C-3.125 0.0625 -3.125 0.0625 0 0 Z " fill="#F98732" transform="translate(356.125,292.9375)"/>
<path d="M0 0 C6.04980987 1.70374072 11.40478716 4.64821612 16.9375 7.5625 C17.95207275 8.09391602 18.96664551 8.62533203 20.01196289 9.17285156 C28.19167572 13.49372022 36.15884022 18.0946299 44 23 C42 24.33333333 40 25.66666667 38 27 C37.63637182 29.20725073 37.63637182 29.20725073 37.8125 31.625 C37.83957031 32.44226563 37.86664063 33.25953125 37.89453125 34.1015625 C37.94673828 35.04128906 37.94673828 35.04128906 38 36 C37.01 35.505 37.01 35.505 36 35 C36 34.34 36 33.68 36 33 C35.401875 32.731875 34.80375 32.46375 34.1875 32.1875 C32.01273336 31.00691239 30.73183488 29.73183488 29 28 C28.01 27.67 27.02 27.34 26 27 C24.81971304 25.37201798 23.70425577 23.69664662 22.625 22 C16.43463669 13.21220143 7.87971544 7.98677042 -2 4 C-1.34 2.68 -0.68 1.36 0 0 Z " fill="#EB7B33" transform="translate(241,116)"/>
<path d="M0 0 C2.9375 2 2.9375 2 5 4 C4.6875 6.875 4.6875 6.875 4 10 C-0.01727661 12.67818441 -3.28026255 12.68882655 -8 12 C-10.625 10.3125 -10.625 10.3125 -12 8 C-12 4.86045016 -11.46673327 3.52058711 -9.375 1.1875 C-6.01623433 -0.49188284 -3.71022229 -0.45564133 0 0 Z " fill="#F8C640" transform="translate(181,260)"/>
<path d="M0 0 C2.5625 1.1875 2.5625 1.1875 4 3 C4.48895928 5.79405302 4.41092177 7.2808869 3 9.75 C-0.14599789 11.71624868 -3.35487043 12.26085673 -7 12 C-9.38364143 10.92610681 -10.95695718 9.68551032 -13 8 C-12.6875 5.125 -12.6875 5.125 -12 2 C-7.96277996 -0.69148002 -4.73723895 -0.54726226 0 0 Z " fill="#F49C34" transform="translate(311,189)"/>
<path d="M0 0 C2.875 1.1875 2.875 1.1875 5 3 C6 5.5 6 5.5 6 8 C4.44247408 10.02875191 3.3668429 10.88527572 0.9140625 11.65234375 C-5.32166674 12.42914961 -5.32166674 12.42914961 -9.0625 10.0625 C-9.701875 9.381875 -10.34125 8.70125 -11 8 C-10.6875 5.125 -10.6875 5.125 -10 2 C-6.27420911 -0.48386059 -4.41288598 -0.3804212 0 0 Z " fill="#FAD245" transform="translate(79,288)"/>
<path d="M0 0 C0.86625 -0.00773437 1.7325 -0.01546875 2.625 -0.0234375 C5.43169477 0.44742248 6.3221828 1.11265294 8 3.375 C8.375 5.875 8.375 5.875 8 8.375 C6.3221828 10.63734706 5.43169477 11.30257752 2.625 11.7734375 C1.75875 11.76570313 0.8925 11.75796875 0 11.75 C-0.86625 11.75773437 -1.7325 11.76546875 -2.625 11.7734375 C-5.43169477 11.30257752 -6.3221828 10.63734706 -8 8.375 C-8.375 5.875 -8.375 5.875 -8 3.375 C-5.66867727 0.23147451 -3.81958719 -0.03410346 0 0 Z " fill="#FCC73E" transform="translate(37,398.625)"/>
<path d="M0 0 C1.34191406 0.70576172 1.34191406 0.70576172 2.7109375 1.42578125 C9.66174733 5.02451631 16.34456796 8.14787934 24 10 C23.67 10.66 23.34 11.32 23 12 C22.34 12 21.68 12 21 12 C20.67 14.64 20.34 17.28 20 20 C14.94593833 15.84443819 10.29814817 11.37752009 5.7331543 6.69604492 C3.129846 4.00391915 3.129846 4.00391915 0 2 C0 1.34 0 0.68 0 0 Z " fill="#F8AC3E" transform="translate(175,189)"/>
<path d="M0 0 C2.625 0.375 2.625 0.375 5 1 C5.625 3.375 5.625 3.375 6 6 C5.34 6.66 4.68 7.32 4 8 C1.375 7.625 1.375 7.625 -1 7 C-1.625 4.625 -1.625 4.625 -2 2 C-1.34 1.34 -0.68 0.68 0 0 Z " fill="#FFE691" transform="translate(93,251)"/>
<path d="M0 0 C2.625 0.375 2.625 0.375 5 1 C5.6875 2.8125 5.6875 2.8125 6 5 C4.8125 6.8125 4.8125 6.8125 3 8 C0.8125 7.6875 0.8125 7.6875 -1 7 C-1.625 4.625 -1.625 4.625 -2 2 C-1.34 1.34 -0.68 0.68 0 0 Z " fill="#FFE492" transform="translate(37,427)"/>
<path d="M0 0 C1.4540625 0.0309375 1.4540625 0.0309375 2.9375 0.0625 C3.5625 2.4375 3.5625 2.4375 3.9375 5.0625 C3.2775 5.7225 2.6175 6.3825 1.9375 7.0625 C-0.6875 6.6875 -0.6875 6.6875 -3.0625 6.0625 C-3.44468767 4.40635343 -3.77645102 2.73792976 -4.0625 1.0625 C-3.0625 0.0625 -3.0625 0.0625 0 0 Z " fill="#FEE394" transform="translate(241.0625,224.9375)"/>
<path d="M0 0 C0.625 2.375 0.625 2.375 1 5 C0.34 5.66 -0.32 6.32 -1 7 C-3.625 6.625 -3.625 6.625 -6 6 C-6 4.02 -6 2.04 -6 0 C-3.50907189 -1.24546405 -2.58919267 -0.7767578 0 0 Z " fill="#FEE093" transform="translate(229,149)"/>
<path d="M0 0 C2.125 0.375 2.125 0.375 4 1 C4.625 3.375 4.625 3.375 5 6 C4.34 6.66 3.68 7.32 3 8 C0.875 7.625 0.875 7.625 -1 7 C-1.625 4.625 -1.625 4.625 -2 2 C-1.34 1.34 -0.68 0.68 0 0 Z " fill="#FFE799" transform="translate(12,425)"/>
<path d="M0 0 C0.598125 0.226875 1.19625 0.45375 1.8125 0.6875 C2.5 2.5 2.5 2.5 2.8125 4.6875 C1.625 6.5 1.625 6.5 -0.1875 7.6875 C-2.375 7.375 -2.375 7.375 -4.1875 6.6875 C-4.875 4.875 -4.875 4.875 -5.1875 2.6875 C-3.58493056 0.24147296 -2.95482043 -0.4221172 0 0 Z " fill="#FFE597" transform="translate(223.1875,327.3125)"/>
<path d="M0 0 C2.625 0.375 2.625 0.375 5 1 C5.042721 2.66611905 5.04063832 4.33382885 5 6 C4 7 4 7 1.4375 7.0625 C0.2309375 7.0315625 0.2309375 7.0315625 -1 7 C-1.625 4.625 -1.625 4.625 -2 2 C-1.34 1.34 -0.68 0.68 0 0 Z " fill="#FEE69C" transform="translate(201,138)"/>
<path d="M0 0 C1.67542976 0.28604898 3.34385343 0.61781233 5 1 C5.625 2.875 5.625 2.875 6 5 C5.34 5.66 4.68 6.32 4 7 C1.375 6.625 1.375 6.625 -1 6 C-1.042721 4.33388095 -1.04063832 2.66617115 -1 1 C-0.67 0.67 -0.34 0.34 0 0 Z " fill="#FFE69C" transform="translate(98,394)"/>
<path d="M0 0 C2.125 0.375 2.125 0.375 4 1 C4.38218767 2.65614657 4.71395102 4.32457024 5 6 C4 7 4 7 1.4375 7.0625 C0.2309375 7.0315625 0.2309375 7.0315625 -1 7 C-1.625 4.625 -1.625 4.625 -2 2 C-1.34 1.34 -0.68 0.68 0 0 Z " fill="#FFE89D" transform="translate(201,300)"/>
<path d="M0 0 C4.03520597 1.58962659 8.01811282 3.28232318 12 5 C11.01 5.66 10.02 6.32 9 7 C8.01 8.485 8.01 8.485 7 10 C6.5875 9.236875 6.175 8.47375 5.75 7.6875 C4.03043329 5.04673684 2.50804131 3.81616784 0 2 C0 1.34 0 0.68 0 0 Z " fill="#9AAC06" transform="translate(222,303)"/>
<path d="M0 0 C2.0625 0.4375 2.0625 0.4375 4 1 C4.33 2.32 4.66 3.64 5 5 C3.35 5.33 1.7 5.66 0 6 C-0.38218767 4.34385343 -0.71395102 2.67542976 -1 1 C-0.67 0.67 -0.34 0.34 0 0 Z " fill="#FEE290" transform="translate(270,216)"/>
<path d="M0 0 C2.0625 0.4375 2.0625 0.4375 4 1 C4.33 2.32 4.66 3.64 5 5 C3.35 5.33 1.7 5.66 0 6 C-0.38218767 4.34385343 -0.71395102 2.67542976 -1 1 C-0.67 0.67 -0.34 0.34 0 0 Z " fill="#FEE192" transform="translate(258,190)"/>
<path d="M0 0 C1.65 0.33 3.3 0.66 5 1 C5 2.32 5 3.64 5 5 C3.125 5.625 3.125 5.625 1 6 C0.34 5.34 -0.32 4.68 -1 4 C-0.625 1.875 -0.625 1.875 0 0 Z " fill="#FEE495" transform="translate(182,243)"/>
<path d="M0 0 C2.0625 0.4375 2.0625 0.4375 4 1 C3.67 2.65 3.34 4.3 3 6 C1.68 5.67 0.36 5.34 -1 5 C-1 1 -1 1 0 0 Z " fill="#FFE596" transform="translate(18,433)"/>
<path d="M0 0 C1.32 0.66 2.64 1.32 4 2 C3.67 3.32 3.34 4.64 3 6 C1.35 5.67 -0.3 5.34 -2 5 C-1.125 1.125 -1.125 1.125 0 0 Z " fill="#FEE496" transform="translate(133,252)"/>
<path d="M0 0 C1.98 0 3.96 0 6 0 C5.67 1.65 5.34 3.3 5 5 C3.35 4.67 1.7 4.34 0 4 C0 2.68 0 1.36 0 0 Z " fill="#FEE394" transform="translate(218,223)"/>
<path d="M0 0 C1.32 0.66 2.64 1.32 4 2 C3.67 3.32 3.34 4.64 3 6 C1.35 5.67 -0.3 5.34 -2 5 C-1.125 1.125 -1.125 1.125 0 0 Z " fill="#FEE096" transform="translate(222,140)"/>
<path d="M0 0 C1.65 0.33 3.3 0.66 5 1 C4.67 2.32 4.34 3.64 4 5 C2.35 4.67 0.7 4.34 -1 4 C-0.67 2.68 -0.34 1.36 0 0 Z " fill="#FEE598" transform="translate(106,386)"/>
<path d="M0 0 C1.65 0.33 3.3 0.66 5 1 C4.67 2.32 4.34 3.64 4 5 C2.35 4.67 0.7 4.34 -1 4 C-0.67 2.68 -0.34 1.36 0 0 Z " fill="#FFE699" transform="translate(190,307)"/>
<path d="M0 0 C1.65 0.33 3.3 0.66 5 1 C4.67 2.32 4.34 3.64 4 5 C2.35 4.67 0.7 4.34 -1 4 C-0.67 2.68 -0.34 1.36 0 0 Z " fill="#FFE799" transform="translate(146,278)"/>
<path d="M0 0 C1.98 0.495 1.98 0.495 4 1 C3.67 2.65 3.34 4.3 3 6 C1.68 5.67 0.36 5.34 -1 5 C-0.67 3.35 -0.34 1.7 0 0 Z " fill="#FFE89B" transform="translate(83,258)"/>
<path d="M0 0 C1.98 0.495 1.98 0.495 4 1 C3.67 2.65 3.34 4.3 3 6 C1.68 5.67 0.36 5.34 -1 5 C-0.67 3.35 -0.34 1.7 0 0 Z " fill="#FEE292" transform="translate(245,199)"/>
<path d="M0 0 C1.65 0 3.3 0 5 0 C4.67 1.65 4.34 3.3 4 5 C2.68 5 1.36 5 0 5 C0 3.35 0 1.7 0 0 Z " fill="#FFE79C" transform="translate(61,408)"/>
<path d="M0 0 C1.32 0.66 2.64 1.32 4 2 C3.34 3.32 2.68 4.64 2 6 C0.68 5.34 -0.64 4.68 -2 4 C-1.34 2.68 -0.68 1.36 0 0 Z " fill="#FFE494" transform="translate(208,317)"/>
<path d="M0 0 C1.32 0 2.64 0 4 0 C4 1.65 4 3.3 4 5 C2.35 5 0.7 5 -1 5 C-0.67 3.35 -0.34 1.7 0 0 Z " fill="#FFE69B" transform="translate(368,266)"/>
<path d="M0 0 C1.65 0 3.3 0 5 0 C4.67 1.65 4.34 3.3 4 5 C2.68 4.67 1.36 4.34 0 4 C0 2.68 0 1.36 0 0 Z " fill="#FFE89B" transform="translate(99,269)"/>
<path d="M0 0 C1.32 0 2.64 0 4 0 C4 1.65 4 3.3 4 5 C2.35 4.67 0.7 4.34 -1 4 C-0.67 2.68 -0.34 1.36 0 0 Z " fill="#FEE69D" transform="translate(384,242)"/>
<path d="M0 0 C1.98 0.495 1.98 0.495 4 1 C3.67 2.32 3.34 3.64 3 5 C1.68 5 0.36 5 -1 5 C-0.67 3.35 -0.34 1.7 0 0 Z " fill="#FFE89D" transform="translate(32,402)"/>
<path d="M0 0 C1.32 0 2.64 0 4 0 C3.67 1.65 3.34 3.3 3 5 C1.68 4.67 0.36 4.34 -1 4 C-0.67 2.68 -0.34 1.36 0 0 Z " fill="#8DA400" transform="translate(112,286)"/>
<path d="M0 0 C1.32 0 2.64 0 4 0 C3.67 1.65 3.34 3.3 3 5 C1.68 4.67 0.36 4.34 -1 4 C-0.67 2.68 -0.34 1.36 0 0 Z " fill="#FFE497" transform="translate(382,273)"/>
<path d="M0 0 C2.475 0.495 2.475 0.495 5 1 C4.67 2.32 4.34 3.64 4 5 C2.68 4.67 1.36 4.34 0 4 C0 2.68 0 1.36 0 0 Z " fill="#8EA500" transform="translate(208,107)"/>
<path d="M0 0 C1.98 0.495 1.98 0.495 4 1 C3.67 2.32 3.34 3.64 3 5 C1.68 4.67 0.36 4.34 -1 4 C-0.67 2.68 -0.34 1.36 0 0 Z " fill="#8CA300" transform="translate(401,256)"/>
<path d="M0 0 C1.98 0.495 1.98 0.495 4 1 C3.67 2.32 3.34 3.64 3 5 C1.68 4.34 0.36 3.68 -1 3 C-0.67 2.01 -0.34 1.02 0 0 Z " fill="#7F9300" transform="translate(231,309)"/>
<path d="M0 0 C1.65 0 3.3 0 5 0 C3.71937515 1.7074998 2.38232443 3.37373596 1 5 C0.34 5 -0.32 5 -1 5 C-0.67 3.35 -0.34 1.7 0 0 Z " fill="#91A800" transform="translate(118,276)"/>
<path d="M0 0 C1.98 0.495 1.98 0.495 4 1 C3.67 1.99 3.34 2.98 3 4 C1.68 4 0.36 4 -1 4 C-0.67 2.68 -0.34 1.36 0 0 Z " fill="#FFE690" transform="translate(103,261)"/>
<path d="M0 0 C1.65 0.33 3.3 0.66 5 1 C5.33 1.99 5.66 2.98 6 4 C3.69 3.34 1.38 2.68 -1 2 C-0.67 1.34 -0.34 0.68 0 0 Z " fill="#F9E199" transform="translate(185,251)"/>
</svg>
